<svg aria-hidden="true" height="21" width="21" style="position:absolute;width:0;height:0;overflow:hidden" xmlns="http://www.w3.org/2000/svg"><defs><svg id="icon-up" width="21" height="21" viewBox="0 0 21 21" fill="none" xmlns="http://www.w3.org/2000/svg"><path d="M15.043 13.832a1 1 0 0 0 1.414-1.414l-1.414 1.414ZM10.5 7.875l.707-.707a1 1 0 0 0-1.414 0l.707.707Zm-5.957 4.543a1 1 0 1 0 1.414 1.414l-1.414-1.414Zm11.914 0-5.25-5.25-1.414 1.414 5.25 5.25 1.414-1.414Zm-6.664-5.25-5.25 5.25 1.414 1.414 5.25-5.25-1.414-1.414Z" fill="#222223"/></svg><svg id="icon-down" width="21" height="21" viewBox="0 0 21 21" fill="none" xmlns="http://www.w3.org/2000/svg"><path d="m5.25 7.875 5.25 5.25 5.25-5.25" stroke="#09090B" stroke-width="2" stroke-linecap="round" stroke-linejoin="round"/></svg><svg id="icon-calendar" width="21" height="21" viewBox="0 0 21 21" fill="none" xmlns="http://www.w3.org/2000/svg"><path d="M16.625 3.5H4.375a1.75 1.75 0 0 0-1.75 1.75V17.5c0 .966.784 1.75 1.75 1.75h12.25a1.75 1.75 0 0 0 1.75-1.75V5.25a1.75 1.75 0 0 0-1.75-1.75ZM14 1.75v3.5M7 1.75v3.5M2.625 8.75h15.75" stroke="#09090B" stroke-width="2" stroke-linecap="round" stroke-linejoin="round"/></svg><svg id="icon-dollar" height="21" viewBox="0 0 21 21" fill="none" xmlns="http://www.w3.org/2000/svg"><path d="M11.5 1.875a1 1 0 1 0-2 0h2Zm-2 19.25a1 1 0 1 0 2 0h-2Zm5.375-14.75a1 1 0 1 0 0-2v2ZM5.25 8.438h-1 1ZM8.313 11.5v1-1Zm4.374 0v-1 1Zm0 6.125v1-1Zm-7.437-1a1 1 0 1 0 0 2v-2ZM9.5 1.875v19.25h2V1.875h-2Zm5.375 2.5H8.312v2h6.563v-2Zm-6.563 0c-1.077 0-2.11.428-2.872 1.19l1.414 1.414a2.063 2.063 0 0 1 1.458-.604v-2ZM5.44 5.565a4.062 4.062 0 0 0-1.19 2.872h2c0-.547.217-1.071.604-1.458L5.44 5.565ZM4.25 8.437c0 1.078.428 2.111 1.19 2.873l1.414-1.414a2.063 2.063 0 0 1-.604-1.459h-2Zm1.19 2.873a4.062 4.062 0 0 0 2.872 1.19v-2a2.063 2.063 0 0 1-1.458-.604L5.44 11.31Zm2.872 1.19h4.376v-2H8.311v2Zm4.376 0c.546 0 1.071.217 1.458.604l1.414-1.414a4.062 4.062 0 0 0-2.873-1.19v2Zm1.458.604c.387.387.604.912.604 1.459h2c0-1.078-.428-2.111-1.19-2.873l-1.414 1.414Zm.604 1.459c0 .546-.217 1.071-.604 1.458l1.414 1.414a4.062 4.062 0 0 0 1.19-2.872h-2Zm-.604 1.458a2.062 2.062 0 0 1-1.459.604v2c1.078 0 2.111-.428 2.873-1.19l-1.414-1.414Zm-1.459.604H5.25v2h7.438v-2Z" fill="#09090B"/></svg><svg id="icon-ruble" width="21" height="21" viewBox="0 0 21 21" fill="none" xmlns="http://www.w3.org/2000/svg"><path fill-rule="evenodd" clip-rule="evenodd" d="M5.544 2.604C5.544 1.718 6.235 1 7.088 1h4.633c2.984 0 5.404 2.514 5.404 5.615 0 3.1-2.42 5.614-5.404 5.614H7.088v1.604h4.633c.426 0 .772.36.772.802 0 .443-.346.803-.772.803H7.088v4.01c0 .443-.345.802-.772.802-.426 0-.772-.36-.772-.802v-4.01h-.772c-.426 0-.772-.36-.772-.803 0-.443.346-.802.772-.802h.772V12.23h-.772c-.426 0-.772-.359-.772-.802 0-.443.346-.802.772-.802h.772v-8.02Zm1.544 8.021h4.633c2.132 0 3.86-1.796 3.86-4.01 0-2.215-1.728-4.01-3.86-4.01H7.088v8.02Z" fill="#222223"/></svg><svg id="icon-euro" width="21" height="21" viewBox="0 0 21 21" fill="none" xmlns="http://www.w3.org/2000/svg"><path d="M16.8 15.234a5.25 5.25 0 0 1-4.148 2.266c-2.345 0-4.374-1.75-5.25-4.375h4.848a.875.875 0 1 0 0-1.75H7.044c0-.289-.044-.586-.044-.875 0-.289 0-.586.044-.875h5.206a.875.875 0 1 0 0-1.75H7.411C8.286 5.25 10.307 3.5 12.661 3.5A5.25 5.25 0 0 1 16.8 5.766a.875.875 0 1 0 1.4-1.032 6.93 6.93 0 0 0-5.547-2.984c-3.29 0-6.126 2.485-7.062 6.125H3.5a.875.875 0 0 0 0 1.75h1.794v1.75H3.5a.875.875 0 0 0 0 1.75h2.091c.954 3.64 3.772 6.125 7.061 6.125a6.928 6.928 0 0 0 5.548-2.984.875.875 0 0 0-1.4-1.032Z" fill="#09090B"/></svg><svg id="icon-close" width="21" height="21" viewBox="0 0 21 21" fill="none" xmlns="http://www.w3.org/2000/svg"><path d="M20 1 1 20M1 1l19 19" stroke="#5450DC" stroke-width="2" stroke-linecap="round" stroke-linejoin="round"/></svg><svg id="icon-close-small" width="14" height="14" viewBox="0 0 14 14" fill="none" xmlns="http://www.w3.org/2000/svg"><path d="M13.707 1.707A1 1 0 0 0 12.293.293l1.414 1.414ZM.293 12.293a1 1 0 1 0 1.414 1.414L.293 12.293Zm1.414-12A1 1 0 0 0 .293 1.707L1.707.293Zm10.586 13.414a1 1 0 0 0 1.414-1.414l-1.414 1.414Zm0-13.414-12 12 1.414 1.414 12-12L12.293.293Zm-12 1.414 12 12 1.414-1.414-12-12L.293 1.707Z" fill="#222223"/></svg><svg id="icon-user" width="14" height="14" viewBox="0 0 14 14" fill="none" xmlns="http://www.w3.org/2000/svg"><path d="M10.667 12.25a1 1 0 1 0 2 0h-2Zm-1.334-3.5v-1 1Zm-4.666 0v-1 1Zm-2.334 2.333h-1 1Zm-1 1.167a1 1 0 1 0 2 0h-2Zm11.334 0v-1.167h-2v1.167h2Zm0-1.167c0-.884-.351-1.732-.977-2.357l-1.414 1.414c.25.25.39.59.39.943h2Zm-.977-2.357a3.334 3.334 0 0 0-2.357-.976v2c.354 0 .693.14.943.39l1.414-1.414ZM9.333 7.75H4.667v2h4.666v-2Zm-4.666 0c-.884 0-1.732.351-2.357.976l1.414 1.414c.25-.25.589-.39.943-.39v-2Zm-2.357.976a3.333 3.333 0 0 0-.977 2.357h2c0-.353.14-.692.39-.943L2.31 8.726Zm-.977 2.357v1.167h2v-1.167h-2Zm7-7c0 .737-.597 1.334-1.333 1.334v2a3.333 3.333 0 0 0 3.333-3.334h-2ZM7 5.417a1.333 1.333 0 0 1-1.333-1.334h-2A3.333 3.333 0 0 0 7 7.417v-2ZM5.667 4.083c0-.736.597-1.333 1.333-1.333v-2a3.333 3.333 0 0 0-3.333 3.333h2ZM7 2.75c.736 0 1.333.597 1.333 1.333h2A3.333 3.333 0 0 0 7 .75v2Z" fill="#09090B"/></svg><svg id="icon-plus" width="14" height="14" viewBox="0 0 14 14" fill="none" xmlns="http://www.w3.org/2000/svg"><path d="M1 6a1 1 0 0 0 0 2V6Zm12 2a1 1 0 1 0 0-2v2ZM8 1a1 1 0 1 0-2 0h2ZM6 13a1 1 0 1 0 2 0H6ZM1 8h12V6H1v2Zm5-7v12h2V1H6Z" fill="#09090B"/></svg></defs></svg>