<svg aria-hidden="true" height="21" width="21" viewBox="0 0 21 21" style="position: absolute; width: 0; height: 0; overflow: hidden;" version="1.1" xmlns="http://www.w3.org/2000/svg" xmlns:xlink="http://www.w3.org/1999/xlink">
    <defs>
        <svg id="icon-up" width="21" height="21" viewBox="0 0 21 21" fill="none" xmlns="http://www.w3.org/2000/svg">
            <path d="M15.0429 13.8321C15.4334 14.2226 16.0666 14.2226 16.4571 13.8321C16.8476 13.4416 16.8476 12.8084 16.4571 12.4179L15.0429 13.8321ZM10.5 7.875L11.2071 7.16789C10.8166 6.77737 10.1834 6.77737 9.79289 7.16789L10.5 7.875ZM4.54289 12.4179C4.15237 12.8084 4.15237 13.4416 4.54289 13.8321C4.93342 14.2226 5.56658 14.2226 5.95711 13.8321L4.54289 12.4179ZM16.4571 12.4179L11.2071 7.16789L9.79289 8.58211L15.0429 13.8321L16.4571 12.4179ZM9.79289 7.16789L4.54289 12.4179L5.95711 13.8321L11.2071 8.58211L9.79289 7.16789Z" fill="#222223"></path>
        </svg>
        <svg id="icon-down" width="21" height="21" viewBox="0 0 21 21" fill="none" xmlns="http://www.w3.org/2000/svg">
            <path d="M5.25 7.875L10.5 13.125L15.75 7.875" stroke="#09090B" stroke-width="2" stroke-linecap="round" stroke-linejoin="round"></path>
        </svg>
        <svg id="icon-calendar" width="21" height="21" viewBox="0 0 21 21" fill="none" xmlns="http://www.w3.org/2000/svg">
            <path d="M16.625 3.5H4.375C3.4085 3.5 2.625 4.2835 2.625 5.25V17.5C2.625 18.4665 3.4085 19.25 4.375 19.25H16.625C17.5915 19.25 18.375 18.4665 18.375 17.5V5.25C18.375 4.2835 17.5915 3.5 16.625 3.5Z" stroke="#09090B" stroke-width="2" stroke-linecap="round" stroke-linejoin="round"></path>
            <path d="M14 1.75V5.25" stroke="#09090B" stroke-width="2" stroke-linecap="round" stroke-linejoin="round"></path>
            <path d="M7 1.75V5.25" stroke="#09090B" stroke-width="2" stroke-linecap="round" stroke-linejoin="round"></path>
            <path d="M2.625 8.75H18.375" stroke="#09090B" stroke-width="2" stroke-linecap="round" stroke-linejoin="round"></path>
        </svg>
        <svg id="icon-dollar" th="21" height="21" viewBox="0 0 21 21" fill="none" xmlns="http://www.w3.org/2000/svg">
            <path d="M11.5 1.875C11.5 1.32272 11.0523 0.875 10.5 0.875C9.94772 0.875 9.5 1.32272 9.5 1.875H11.5ZM9.5 21.125C9.5 21.6773 9.94772 22.125 10.5 22.125C11.0523 22.125 11.5 21.6773 11.5 21.125H9.5ZM14.875 6.375C15.4273 6.375 15.875 5.92728 15.875 5.375C15.875 4.82272 15.4273 4.375 14.875 4.375V6.375ZM5.25 8.4375H4.25H5.25ZM8.3125 11.5V12.5V11.5ZM12.6875 11.5L12.6875 10.5H12.6875V11.5ZM12.6875 17.625V18.625H12.6875L12.6875 17.625ZM5.25 16.625C4.69772 16.625 4.25 17.0727 4.25 17.625C4.25 18.1773 4.69772 18.625 5.25 18.625V16.625ZM9.5 1.875V21.125H11.5V1.875H9.5ZM14.875 4.375H8.3125V6.375H14.875V4.375ZM8.3125 4.375C7.23506 4.375 6.20175 4.80301 5.43988 5.56488L6.85409 6.97909C7.24089 6.5923 7.76549 6.375 8.3125 6.375V4.375ZM5.43988 5.56488C4.67801 6.32675 4.25 7.36006 4.25 8.4375H6.25C6.25 7.89049 6.4673 7.36589 6.85409 6.97909L5.43988 5.56488ZM4.25 8.4375C4.25 9.51494 4.67801 10.5483 5.43988 11.3101L6.85409 9.89591C6.4673 9.50911 6.25 8.98451 6.25 8.4375H4.25ZM5.43988 11.3101C6.20175 12.072 7.23506 12.5 8.3125 12.5L8.3125 10.5C7.76549 10.5 7.24089 10.2827 6.85409 9.89591L5.43988 11.3101ZM8.3125 12.5H12.6875V10.5H8.3125V12.5ZM12.6875 12.5C13.2345 12.5 13.7591 12.7173 14.1459 13.1041L15.5601 11.6899C14.7983 10.928 13.7649 10.5 12.6875 10.5L12.6875 12.5ZM14.1459 13.1041C14.5327 13.4909 14.75 14.0155 14.75 14.5625H16.75C16.75 13.4851 16.322 12.4517 15.5601 11.6899L14.1459 13.1041ZM14.75 14.5625C14.75 15.1095 14.5327 15.6341 14.1459 16.0209L15.5601 17.4351C16.322 16.6733 16.75 15.6399 16.75 14.5625H14.75ZM14.1459 16.0209C13.7591 16.4077 13.2345 16.625 12.6875 16.625L12.6875 18.625C13.7649 18.625 14.7983 18.197 15.5601 17.4351L14.1459 16.0209ZM12.6875 16.625H5.25V18.625H12.6875V16.625Z" fill="#09090B"></path>
        </svg>
        <svg id="icon-ruble" width="21" height="21" viewBox="0 0 21 21" fill="none" xmlns="http://www.w3.org/2000/svg">
            <path fill-rule="evenodd" clip-rule="evenodd" d="M5.54412 2.60417C5.54412 1.71821 6.23544 1 7.08824 1H11.7206C14.7054 1 17.125 3.51374 17.125 6.61458C17.125 9.71544 14.7054 12.2292 11.7206 12.2292H7.08824V13.8333H11.7206C12.147 13.8333 12.4926 14.1924 12.4926 14.6354C12.4926 15.0784 12.147 15.4375 11.7206 15.4375H7.08824V19.4479C7.08824 19.8909 6.74257 20.25 6.31618 20.25C5.88978 20.25 5.54412 19.8909 5.54412 19.4479V15.4375H4.77206C4.34567 15.4375 4 15.0784 4 14.6354C4 14.1924 4.34567 13.8333 4.77206 13.8333H5.54412V12.2292H4.77206C4.34567 12.2292 4 11.8701 4 11.4271C4 10.9841 4.34567 10.625 4.77206 10.625H5.54412V2.60417ZM7.08824 10.625H11.7206C13.8526 10.625 15.5809 8.82947 15.5809 6.61458C15.5809 4.39969 13.8526 2.60417 11.7206 2.60417H7.08824V10.625Z" fill="#222223"></path>
        </svg>
        <svg id="icon-euro" width="21" height="21" viewBox="0 0 21 21" fill="none" xmlns="http://www.w3.org/2000/svg">
            <path d="M16.8 15.2337C16.334 15.9094 15.716 16.4664 14.9957 16.86C14.2754 17.2536 13.4729 17.4728 12.6525 17.5C10.3075 17.5 8.2775 15.75 7.4025 13.125H12.25C12.4821 13.125 12.7046 13.0328 12.8687 12.8687C13.0328 12.7046 13.125 12.4821 13.125 12.25C13.125 12.0179 13.0328 11.7954 12.8687 11.6313C12.7046 11.4672 12.4821 11.375 12.25 11.375H7.04375C7.04375 11.0862 7 10.7888 7 10.5C7 10.2112 7 9.91375 7.04375 9.625H12.25C12.4821 9.625 12.7046 9.53281 12.8687 9.36872C13.0328 9.20462 13.125 8.98206 13.125 8.75C13.125 8.51794 13.0328 8.29538 12.8687 8.13128C12.7046 7.96719 12.4821 7.875 12.25 7.875H7.41125C8.28625 5.25 10.3075 3.5 12.6613 3.5C13.4801 3.52858 14.2809 3.74843 14.9996 4.14195C15.7182 4.53547 16.3348 5.09174 16.8 5.76625C16.8618 5.87258 16.9452 5.9647 17.045 6.03661C17.1447 6.10851 17.2585 6.15859 17.3789 6.18357C17.4993 6.20855 17.6236 6.20788 17.7437 6.18159C17.8638 6.15531 17.977 6.104 18.076 6.03102C18.175 5.95804 18.2574 5.86502 18.318 5.75803C18.3786 5.65104 18.416 5.53248 18.4277 5.41007C18.4394 5.28767 18.4252 5.16418 18.3859 5.04765C18.3467 4.93111 18.2833 4.82416 18.2 4.73375C17.5768 3.83353 16.7491 3.0938 15.7848 2.57516C14.8206 2.05652 13.7471 1.77375 12.6525 1.75C9.3625 1.75 6.5275 4.235 5.59125 7.875H3.5C3.26794 7.875 3.04538 7.96719 2.88128 8.13128C2.71719 8.29538 2.625 8.51794 2.625 8.75C2.625 8.98206 2.71719 9.20462 2.88128 9.36872C3.04538 9.53281 3.26794 9.625 3.5 9.625H5.29375C5.29375 9.91375 5.29375 10.2112 5.29375 10.5C5.29375 10.7888 5.29375 11.0862 5.29375 11.375H3.5C3.26794 11.375 3.04538 11.4672 2.88128 11.6313C2.71719 11.7954 2.625 12.0179 2.625 12.25C2.625 12.4821 2.71719 12.7046 2.88128 12.8687C3.04538 13.0328 3.26794 13.125 3.5 13.125H5.59125C6.545 16.765 9.3625 19.25 12.6525 19.25C13.7471 19.2263 14.8206 18.9435 15.7848 18.4248C16.7491 17.9062 17.5768 17.1665 18.2 16.2663C18.3082 16.0799 18.3439 15.8601 18.3001 15.649C18.2563 15.438 18.1362 15.2505 17.9627 15.1226C17.7892 14.9947 17.5747 14.9353 17.3601 14.9558C17.1455 14.9763 16.9461 15.0753 16.8 15.2337Z" fill="#09090B"></path>
        </svg>
        <svg id="icon-close" width="21" height="21" viewBox="0 0 21 21" fill="none" xmlns="http://www.w3.org/2000/svg">
            <path d="M20 1L1 20" stroke="#5450DC" stroke-width="2" stroke-linecap="round" stroke-linejoin="round"></path>
            <path d="M1 1L20 20" stroke="#5450DC" stroke-width="2" stroke-linecap="round" stroke-linejoin="round"></path>
        </svg>
        <svg id="icon-close-small" width="14" height="14" viewBox="0 0 14 14" fill="none" xmlns="http://www.w3.org/2000/svg">
            <path d="M13.7071 1.70711C14.0976 1.31658 14.0976 0.683418 13.7071 0.292893C13.3166 -0.0976311 12.6834 -0.0976311 12.2929 0.292893L13.7071 1.70711ZM0.292893 12.2929C-0.0976311 12.6834 -0.0976311 13.3166 0.292893 13.7071C0.683418 14.0976 1.31658 14.0976 1.70711 13.7071L0.292893 12.2929ZM1.70711 0.292893C1.31658 -0.0976311 0.683418 -0.0976311 0.292893 0.292893C-0.0976311 0.683418 -0.0976311 1.31658 0.292893 1.70711L1.70711 0.292893ZM12.2929 13.7071C12.6834 14.0976 13.3166 14.0976 13.7071 13.7071C14.0976 13.3166 14.0976 12.6834 13.7071 12.2929L12.2929 13.7071ZM12.2929 0.292893L0.292893 12.2929L1.70711 13.7071L13.7071 1.70711L12.2929 0.292893ZM0.292893 1.70711L12.2929 13.7071L13.7071 12.2929L1.70711 0.292893L0.292893 1.70711Z" fill="#222223"></path>
        </svg>
        <svg id="icon-user" width="14" height="14" viewBox="0 0 14 14" fill="none" xmlns="http://www.w3.org/2000/svg">
            <path d="M10.6667 12.25C10.6667 12.8023 11.1144 13.25 11.6667 13.25C12.2189 13.25 12.6667 12.8023 12.6667 12.25H10.6667ZM9.33333 8.75V7.75V8.75ZM4.66667 8.75L4.66667 7.75L4.66667 8.75ZM2.33333 11.0833H1.33333H2.33333ZM1.33333 12.25C1.33333 12.8023 1.78105 13.25 2.33333 13.25C2.88562 13.25 3.33333 12.8023 3.33333 12.25H1.33333ZM12.6667 12.25V11.0833H10.6667V12.25H12.6667ZM12.6667 11.0833C12.6667 10.1993 12.3155 9.35143 11.6904 8.72631L10.2761 10.1405C10.5262 10.3906 10.6667 10.7297 10.6667 11.0833H12.6667ZM11.6904 8.72631C11.0652 8.10119 10.2174 7.75 9.33333 7.75L9.33333 9.75C9.68695 9.75 10.0261 9.89048 10.2761 10.1405L11.6904 8.72631ZM9.33333 7.75H4.66667V9.75H9.33333V7.75ZM4.66667 7.75C3.78261 7.75 2.93476 8.10119 2.30964 8.72631L3.72386 10.1405C3.9739 9.89048 4.31304 9.75 4.66667 9.75L4.66667 7.75ZM2.30964 8.72631C1.68452 9.35143 1.33333 10.1993 1.33333 11.0833H3.33333C3.33333 10.7297 3.47381 10.3906 3.72386 10.1405L2.30964 8.72631ZM1.33333 11.0833V12.25H3.33333V11.0833H1.33333ZM8.33333 4.08333C8.33333 4.81971 7.73638 5.41667 7 5.41667V7.41667C8.84095 7.41667 10.3333 5.92428 10.3333 4.08333H8.33333ZM7 5.41667C6.26362 5.41667 5.66667 4.81971 5.66667 4.08333H3.66667C3.66667 5.92428 5.15905 7.41667 7 7.41667V5.41667ZM5.66667 4.08333C5.66667 3.34695 6.26362 2.75 7 2.75V0.75C5.15905 0.75 3.66667 2.24238 3.66667 4.08333H5.66667ZM7 2.75C7.73638 2.75 8.33333 3.34695 8.33333 4.08333H10.3333C10.3333 2.24238 8.84095 0.75 7 0.75V2.75Z" fill="#09090B"></path>
        </svg>
        <svg id="icon-plus" width="14" height="14" viewBox="0 0 14 14" fill="none" xmlns="http://www.w3.org/2000/svg">
            <path d="M1 6C0.447715 6 0 6.44772 0 7C0 7.55228 0.447715 8 1 8V6ZM13 8C13.5523 8 14 7.55228 14 7C14 6.44772 13.5523 6 13 6V8ZM8 1C8 0.447715 7.55229 2.19458e-08 7 0C6.44772 -2.19458e-08 6 0.447715 6 1L8 1ZM6 13C6 13.5523 6.44772 14 7 14C7.55229 14 8 13.5523 8 13L6 13ZM1 8H13V6H1V8ZM6 1L6 13L8 13L8 1L6 1Z" fill="#09090B"></path>
        </svg>
    </defs>
</svg>
